<svg xmlns="http://www.w3.org/2000/svg" xmlns:xlink="http://www.w3.org/1999/xlink" viewBox="0 0 188.27 187.29"><defs><style>.cls-1{fill:url(#linear-gradient);}.cls-2{fill:url(#linear-gradient-2);}.cls-3{fill:url(#linear-gradient-3);}</style><linearGradient id="linear-gradient" y1="85.43" x2="188.27" y2="85.43" gradientTransform="matrix(1, 0, 0, -1, 0, 179.08)" gradientUnits="userSpaceOnUse"><stop offset="0" stop-color="#949a7c"/><stop offset="0.29" stop-color="#a1b18b"/><stop offset="0.6" stop-color="#bbe0b3"/><stop offset="0.7" stop-color="#b7d6a8"/><stop offset="0.87" stop-color="#abbb8c"/><stop offset="0.91" stop-color="#a8b384"/><stop offset="1" stop-color="#9fac83"/></linearGradient><linearGradient id="linear-gradient-2" x1="35.46" y1="72.43" x2="161.56" y2="72.43" xlink:href="#linear-gradient"/><linearGradient id="linear-gradient-3" x1="77.93" y1="151.33" x2="141.42" y2="50.17" xlink:href="#linear-gradient"/></defs><g id="Layer_2" data-name="Layer 2"><g id="Layer_1-2" data-name="Layer 1"><path class="cls-1" d="M186.16,62.39l-3.4-3.4.5-4.8a7.13,7.13,0,0,0-3-6.6l-3.9-2.8L176,40a7.31,7.31,0,0,0-4.1-6l-4.4-2.1-1.2-4.7a7.25,7.25,0,0,0-5.1-5.2l-4.7-1.3-2-4.4a7.37,7.37,0,0,0-5.9-4.3l-13.4-1.3a44.58,44.58,0,0,0-26.6-9.8,44.81,44.81,0,0,0-15.5-.4,46.5,46.5,0,0,0-14.8,2.1,45,45,0,0,0-14.8,4.7,44.34,44.34,0,0,0-13.3,6.9l-19.4,5a7.56,7.56,0,0,0-5.2,5.2L24,30.09,19.66,32a7.08,7.08,0,0,0-4.2,6l-.6,5.9L11,46.59a7.51,7.51,0,0,0-3.2,6.6l.4,5.8-3.4,3.4a7.41,7.41,0,0,0-2,7.1l1.4,5.6L1.36,79a7.34,7.34,0,0,0-.7,7.3l5.2,11.4a43.57,43.57,0,0,0,3.9,22.5,45.54,45.54,0,0,0,6.7,14.9,44.33,44.33,0,0,0,9.2,13.5A43,43,0,0,0,37,160.19a44.57,44.57,0,0,0,20.3,12.1l8.4,8.6a7.41,7.41,0,0,0,7.1,2l4.5-1.2,4.8,3.5a7.34,7.34,0,0,0,7.3.7l4.3-1.9,5.4,2.6a7.33,7.33,0,0,0,7.3-.6l3.9-2.7,5.6,1.5A7.44,7.44,0,0,0,123,183l3.4-3.3,5.8.6a7.13,7.13,0,0,0,6.6-3l11.6-16.3a42.86,42.86,0,0,0,11.1-9.7,44.84,44.84,0,0,0,9.8-11.9,44.88,44.88,0,0,0,7.8-14,42.54,42.54,0,0,0,4.9-14.7,45,45,0,0,0,.4-27.4l3.7-13.4A8.16,8.16,0,0,0,186.16,62.39Zm-6.1-14.6a7,7,0,0,1,2.9,6.4l-.5,4.5-5.6-5.7-.6-7.9ZM11.86,72.89,10,79.49l-.9-11.2,3.7-5.1Zm1.2-10.2,2.5-3.5-3.3,11.9Zm-1.4,11.8-1.1,11.8-.5-6Zm-1.3,13.6-.7,7-1.8-6.9,1.9-6.9Zm.1,1.7.9,12.1-1.5-6Zm.3-1.8,1.5-15.2,4-14.4,17.3-24.1L44.06,24l12.7-8.7,13.4-6.1,13.1-3.4,29.5,2.9,13.8,3.9,13.2,6.3,11.6,8.2,14.5,14.8,9.2,20.2,3.6,13.8,1,13.9-1.4,14.1-7.9,28.3-8.6,12-10.5,10.3-11.5,7.9-13.4,6.1-29.9,7.7-14.7-1.4-14.6-4.1-13.4-6.4-12.4-8.9-16.5-16.9-9.2-20.2L12,103.59Zm168.8,3.6L180,97l-1.4,5.2Zm-.7-14,1.3,5.1-.5,5.3Zm-.2-1.7-.5-6.4,2.6,5.9-.6,6.5Zm-.4-1.7-2.7-10.5,2.3,5ZM175.16,62l-3.7-14.1,5.1,5.3,1.2,14.7Zm-.8-1.6-8.1-17.9,4.8,4.9ZM166,41.79l-2.7-6,6,4.2,1.7,6.8Zm-.6-.7-12.7-13,10.1,7.2Zm-14-14.2-4.5-4.5,12.6,6,2.9,6.4Zm-1.4-1-8.7-6.2,4.9,2.4Zm-10.2-7.3-5.3-3.8,6.4,1.8,4.6,4.8Zm-1.6-.8L128.06,13l5.5,1.5Zm-11.6-5.5-5.8-2.7,6.7.7,5.4,3.8Zm-1.7-.5-10.4-2.9,5.5.5Zm-12.1-3.4-17-4.7a16,16,0,0,0-2.1-.5l2.7-.7a29.79,29.79,0,0,1,4.3-.9,48.86,48.86,0,0,1,10,3.3l8.5,4.1ZM95.66,4,111,8.29l-26.9-2.6L93,3.39A26.14,26.14,0,0,1,95.66,4Zm-12.5,1.5L81,5.29a12.75,12.75,0,0,0-2-.1l2.4-1.1c1.4-.6,2.9-1.2,4.3-1.7a49.53,49.53,0,0,1,6.6.8Zm-2.3.1,1.4.1-10.6,2.8,6.7-3.1C79.16,5.49,80.06,5.49,80.86,5.59ZM70,8.89l-6.4,1.6,3.3-2.3a46.36,46.36,0,0,1,4.2-2.5,36.49,36.49,0,0,1,6.6-.3Zm-1.6.8-10.3,4.6,4.7-3.2ZM56.56,15l-6.4,2.9,3.1-3a19,19,0,0,1,2.1-1.9l6.7-1.7Zm-1.5,1-9.9,6.8,4.4-4.3Zm-11.3,7.8-5.5,3.7,2.7-3.8c.5-.7,1-1.4,1.5-2l6.2-2.8Zm-1.3,1.3-8,7.9,3.3-4.6Zm-9.3,9L19.06,48l2.4-8.5,15.6-10.7Zm-1,1.5-15.8,22,2.5-9.1Zm-16.3,22.8-2.7,3.7.9-8.8,4.4-4.3Zm-3,4.2-3.8,5.2-.7-8.9,5.3-5.2Zm-3.1,17.8-2,7.2-3.3-12.7,4.4-6.1ZM9.56,96l-.7,7.4-2.8-6.1a40.14,40.14,0,0,1,1.4-7.7l.2-.8Zm.2.9,1.7,6.8.5,6.8L9,104Zm2.2,8.4,2.9,11.3-2.5-5.4Zm3.3,13.1,3.6,14.2-.6-.6a52.69,52.69,0,0,1-4.3-5.1,45.83,45.83,0,0,1-1-6.3l-.6-8.3Zm.7,1.5,8.1,17.9-4.8-4.8Zm8.6,18.7,3.1,7-.6-.4a43.24,43.24,0,0,1-5.2-4.4,32.32,32.32,0,0,1-2.1-6.2l-.3-1.1Zm.6.7,14.7,15-11.7-8.4Zm16,16.3,4.8,4.9-8-3.8a49.94,49.94,0,0,1-5.9-3.4,45.13,45.13,0,0,1-3.1-5.7l-.5-1Zm1.4,1,9.6,6.8-5.4-2.6Zm11,7.9,5.4,3.9-6.8-1.9-4.9-4.9Zm1.6.7,10.3,4.9-5.6-1.6Zm11.8,5.7,6.1,2.9-6.9-.7-5.6-4.1Zm1.7.5,11.3,3.1-5.9-.6Zm12.9,3.6,9.2,2.5-6,1.5-10-4.7Zm1.8.1,12.1,1.2-4.1,1Zm13,1.3,10.1,1-5.7,2.6-8.8-2.4Zm.9-.2,27.4-7-17.6,8Zm29.1-7.5,6.4-1.6-16.1,11-9-.9Zm1.5-.7,10.2-4.6-4.7,3.2Zm11.9-5.4,5.7-2.6-4.7,4.6a12.55,12.55,0,0,1-2.6.7l-3.9,1Zm1.4-1,8.7-5.9-3.8,3.7Zm10.1-6.9,5.4-3.7-3.8,5.2c-.6.3-1.4.7-2.1,1.1l-4,1.8Zm1.3-1.2,8-7.9-3.3,4.6Zm9.3-9.1,6.6-6.5a41.23,41.23,0,0,1-3,6.4,34.4,34.4,0,0,1-3.6,2.8l-3.9,2.7Zm1-1.4,7.1-9.9-.5,1.6a25.82,25.82,0,0,1-.8,2.6Zm6.9-8.2.7-2.4,5.5-7.7a52,52,0,0,1-1.7,6.8q-1.65,1.95-3.3,3.6l-1.8,1.8C169.36,136.09,169.56,135.49,169.76,134.79Zm.9-3.3,7.2-25.9-1.6,16L176,124Zm6-9.8,1.7-17.7,1.7-6.1.7,9.7a52.46,52.46,0,0,1-.3,9.7,38.65,38.65,0,0,1-2.7,4.3l-1.4,1.9Zm3.1-31.9.6-6.1L182,90l-1.7,6.2Zm.7-7.1.7-6.8.9,2c.7,1.6,1.3,3.3,1.9,5l-1.8,6.4Zm.4-7.9-2.8-6.2-1.2-15.2,5.5,5.6Zm-4.3-22.1-5.3-5.4-1.8-7,6.5,4.6Zm-4.9-18.5a7,7,0,0,1,4,5.8l.3,4.5-6.6-4.7-2-7.6Zm-2.6,5.3-6.1-4.3-3-6.6,7.2,3.4ZM161,22.19a7.06,7.06,0,0,1,4.9,5l1.1,4.4-7.2-3.5-3.3-7.3Zm-1.6,5.8-13-6.3-4.9-5,14.7,4.1Zm-11-15.8a7,7,0,0,1,5.7,4.1l1.9,4.2-14.9-4.2-2.2-2.3c-1.1-1.1-2.2-2.1-3.3-3.1Zm-9.8,2.1,1.8,1.9-6.6-1.9-5.7-4,6.8.7A36.6,36.6,0,0,1,138.56,14.29Zm-4.2-3.8-6.9-.7L125.06,8A44.1,44.1,0,0,0,110,1.09,44.82,44.82,0,0,1,134.36,10.49ZM125,8.39l2,1.4-7-.7-9.3-4.5a41.77,41.77,0,0,0-9.2-3.2,38.72,38.72,0,0,1,6.8-.3A43.08,43.08,0,0,1,125,8.39ZM106.66.79a40.47,40.47,0,0,0-6,.5,41.13,41.13,0,0,0-6-.8A44,44,0,0,1,106.66.79ZM93,.69a53.77,53.77,0,0,1,6.9.7c-1.2.2-2.4.4-3.5.7l-3.3.9a46.23,46.23,0,0,0-6.5-.9A42.66,42.66,0,0,1,93,.69Zm-1.8,0a35.28,35.28,0,0,0-5.6,1.4,56.13,56.13,0,0,0-5.8.1A44.63,44.63,0,0,1,91.16.69Zm-13,2a47.27,47.27,0,0,1,6.5-.4c-1.2.5-2.4.9-3.6,1.5l-2.9,1.3a47.07,47.07,0,0,0-6.5.2A58.69,58.69,0,0,1,78.16,2.69Zm-1.6.3a53.8,53.8,0,0,0-5.5,2.4q-3,.45-6,1.2A49.65,49.65,0,0,1,76.56,3Zm-13.1,4.4a50.27,50.27,0,0,1,6.7-1.6c-1.2.7-2.4,1.4-3.5,2.2l-4,2.7-6.9,1.8A57.06,57.06,0,0,1,63.46,7.39Zm-1.6.6a53.5,53.5,0,0,0-6.7,4.7l-4.4,1.1A45.13,45.13,0,0,1,61.86,8Zm-11.7,6.3,4.5-1.2c-.5.5-1.1,1-1.6,1.5l-3.7,3.6L43,21.09A42.3,42.3,0,0,1,50.16,14.29Zm-24.5,10a7.06,7.06,0,0,1,5-4.9l18.7-4.8a42.72,42.72,0,0,0-7.1,7l-18.2,8.3Zm-1.6,5.8L42,22c-.4.5-.8,1-1.2,1.6l-3.2,4.5L21.56,39Zm-8.5,7.7a7,7,0,0,1,4.1-5.7l4.1-1.8-2.5,9-6.2,4.2Zm-.6,6.1,6.1-4.2-2.4,8.7-4.6,4.5ZM8,53a6.84,6.84,0,0,1,3-6.3l3.7-2.5-.9,9-5.4,5.3ZM3,69.09a7.18,7.18,0,0,1,1.9-6.8l3.3-3.2.7,9-4.5,6.2ZM.86,85.79a7,7,0,0,1,.7-7l2.6-3.7,3.3,13-.4,1.3a61,61,0,0,0-1.4,7.2ZM6,97.89l2.7,6.1-.1,1.3a44.25,44.25,0,0,0,.7,13.1A46.59,46.59,0,0,1,6,97.89Zm3,7.4.1-.7,3.1,6.8.7,9.2a55.79,55.79,0,0,0,.8,5.7l-.1-.1a39.39,39.39,0,0,1-3.6-6.3A45.21,45.21,0,0,1,9,105.29Zm1.4,16a40.84,40.84,0,0,0,3.4,5.7,45.72,45.72,0,0,0,1.9,6.3A46.17,46.17,0,0,1,10.36,121.29Zm3.9,6.3a42,42,0,0,0,3.9,4.5l.9.9.4,1.6c.5,1.8,1.1,3.7,1.8,5.5a35.14,35.14,0,0,1-4.6-5.6A40.19,40.19,0,0,1,14.26,127.59Zm6.4,14.3a41.92,41.92,0,0,1-3.4-5.8,51.45,51.45,0,0,0,4.3,5,47.5,47.5,0,0,0,3.1,5.9C23.26,145.29,21.86,143.59,20.66,141.89Zm1.6-.4a44.2,44.2,0,0,0,4.7,3.9l1,.7.7,1.5a41.11,41.11,0,0,0,2.7,5.1,48.8,48.8,0,0,1-5.5-4.7A37.25,37.25,0,0,1,22.26,141.49Zm4.4,7.9a39.81,39.81,0,0,0,5.1,4.1,64.06,64.06,0,0,0,3.9,5.2A49.57,49.57,0,0,1,26.66,149.39Zm6,4.7-.1-.2a38.46,38.46,0,0,0,5.3,3l8.8,4.2,5.1,5.2-1.1-.3a42.44,42.44,0,0,1-13.4-6.4A33.57,33.57,0,0,1,32.66,154.09Zm5.5,6.6a45.66,45.66,0,0,0,12.3,5.6l1.6.4,4.7,4.8A43.69,43.69,0,0,1,38.16,160.69Zm14.5,6.2,7.1,1.9,5.9,4.3-1.1-.1a60.49,60.49,0,0,1-7.2-1.3Zm19.9,15.3a7.18,7.18,0,0,1-6.8-1.9l-8.1-8.3a39.29,39.29,0,0,0,6.7,1.2l1.6.2,10.7,7.7Zm-5.8-8.7,7.2.7,10.4,5-7.1,1.9Zm22.4,11.8a7,7,0,0,1-7-.7l-4.6-3.3,7.2-1.8,8.4,4Zm4.4-2-8.3-4,6.2-1.6,8.9,2.5Zm12.4,2.1a7,7,0,0,1-7,.5l-5.1-2.4,6.9-3.1,8.9,2.5Zm4.1-2.8-8.8-2.5,5.8-2.7,9.2.9Zm12.5-.1a6.85,6.85,0,0,1-6.8,1.7l-5.3-1.5,6.3-4.3,9.1.9Zm3.5-3.4-9-.9,16.5-11.3,4.7-1.2c.7-.2,1.4-.4,2-.6Zm12.3-2.4a7,7,0,0,1-6.4,2.9l-5.5-.6,14.5-14.2a45.33,45.33,0,0,0,8.7-3.9Zm11.7-16.4a39.54,39.54,0,0,1-8.6,4l4.8-4.7,4.7-2.2a13,13,0,0,0,1.7-.8Zm.7-.4,2.5-3.5a43.93,43.93,0,0,0,6.8-4.4A43.35,43.35,0,0,1,150.76,159.89Zm10.4-9.2a43.58,43.58,0,0,1-7.5,5.2l3.9-5.4,4.6-3.1c1-.7,2-1.5,3-2.2C164,147,162.56,148.89,161.16,150.69Zm1.3-1.1a53.93,53.93,0,0,0,3.3-5,42.64,42.64,0,0,0,4.3-4.2A50.93,50.93,0,0,1,162.46,149.59Zm8.5-10.8a31.73,31.73,0,0,1-4.8,4.9,50.39,50.39,0,0,0,2.8-6.3l2.2-2.2a25.23,25.23,0,0,0,2.7-3A48.85,48.85,0,0,1,171,138.79Zm1-1.3a42.26,42.26,0,0,0,2.5-5.8,58.8,58.8,0,0,0,3.6-5.1A45.23,45.23,0,0,1,172,137.49Zm6.7-12.6a33.5,33.5,0,0,1-3.9,5.9,52.78,52.78,0,0,0,1.6-6.6l1.7-2.3c.8-1.2,1.6-2.4,2.3-3.6A53.35,53.35,0,0,1,178.66,124.89Zm.8-1.6a38.75,38.75,0,0,0,1.3-5.9,34.25,34.25,0,0,0,2.5-5.5A41.36,41.36,0,0,1,179.46,123.29Zm4.2-13a48.45,48.45,0,0,1-2.7,6.2,38.73,38.73,0,0,0,.2-9l-.8-10.5,1.8-6.5.6,2.3A47,47,0,0,1,183.66,110.29Zm.5-1.7a44.15,44.15,0,0,0-1.1-15.8l-.7-2.9,1.8-6.4A44.65,44.65,0,0,1,184.16,108.59Zm3.5-39.2-3.6,13c-.5-1.5-1.1-3.1-1.7-4.6l-1.1-2.5,1.6-16,3.2,3.3A7.29,7.29,0,0,1,187.66,69.39Z"/><path class="cls-2" d="M35.46,52.49v-1l68.3-.1v1Zm61.8,108.9-34.5-58.6-.9.5,34.5,58.6Zm64.3-108.1-.9-.5-33.4,59.5.9.5Z"/><path class="cls-3" d="M38.36,54.89l59.2,102.6,59.2-102.6Zm9.4,5.5H148l-50.1,86.8Z"/></g></g></svg>